<svg width="60" height="61" viewBox="0 0 60 61" fill="none" xmlns="http://www.w3.org/2000/svg">
<path d="M12.7943 13.956V45.0589H49.1914C49.7179 45.0589 50.2229 45.2681 50.5952 45.6404C50.9675 46.0127 51.1767 46.5177 51.1767 47.0442C51.1767 47.5708 50.9675 48.0757 50.5952 48.448C50.2229 48.8204 49.7179 49.0295 49.1914 49.0295H10.809C10.2825 49.0295 9.77752 48.8204 9.40521 48.448C9.03289 48.0757 8.82373 47.5708 8.82373 47.0442V13.956C8.82373 13.4295 9.03289 12.9245 9.40521 12.5522C9.77752 12.1799 10.2825 11.9707 10.809 11.9707C11.3356 11.9707 11.8405 12.1799 12.2128 12.5522C12.5852 12.9245 12.7943 13.4295 12.7943 13.956ZM50.5943 20.6531L36.6973 34.5501C36.325 34.9219 35.8204 35.1307 35.2943 35.1307C34.7682 35.1307 34.2636 34.9219 33.8914 34.5501L27.3531 28.0119L20.1531 35.2119C19.7769 35.563 19.279 35.7543 18.7644 35.7454C18.2498 35.7365 17.7588 35.5281 17.3949 35.1642C17.031 34.8003 16.8226 34.3093 16.8138 33.7947C16.8049 33.2802 16.9961 32.7823 17.3473 32.406L25.9502 23.8031C26.3224 23.4313 26.827 23.2224 27.3531 23.2224C27.8792 23.2224 28.3838 23.4313 28.7561 23.8031L35.2943 30.3413L47.7884 17.8472C48.1647 17.4961 48.6626 17.3048 49.1772 17.3137C49.6917 17.3226 50.1828 17.5309 50.5467 17.8948C50.9106 18.2587 51.1189 18.7497 51.1278 19.2643C51.1367 19.7789 50.9454 20.2768 50.5943 20.6531Z" fill="#205149"/>
</svg>
