<svg width="60" height="61" viewBox="0 0 60 61" fill="none" xmlns="http://www.w3.org/2000/svg">
<path d="M46.25 5.5H13.75C12.3693 5.5 11.25 6.61929 11.25 8V53C11.25 54.3807 12.3693 55.5 13.75 55.5H46.25C47.6307 55.5 48.75 54.3807 48.75 53V8C48.75 6.61929 47.6307 5.5 46.25 5.5Z" stroke="#205149" stroke-width="3.75"/>
<path d="M30 46.75C34.1421 46.75 37.5 43.3921 37.5 39.25C37.5 35.1079 34.1421 31.75 30 31.75C25.8579 31.75 22.5 35.1079 22.5 39.25C22.5 43.3921 25.8579 46.75 30 46.75Z" stroke="#205149" stroke-width="3.75"/>
<path d="M22.5 15.5H26.25M22.5 23H26.25M33.75 23H37.5" stroke="#205149" stroke-width="3.75" stroke-linecap="round" stroke-linejoin="round"/>
</svg>
