<svg width="60" height="61" viewBox="0 0 60 61" fill="none" xmlns="http://www.w3.org/2000/svg">
<path d="M30.0001 5.48976C34.8667 5.48337 39.5445 7.37187 43.0426 10.7552C46.5407 14.1384 48.5842 18.7507 48.7401 23.6148L48.7501 24.2398V34.4823L52.2001 42.3723C52.4076 42.8477 52.4935 43.3673 52.45 43.8842C52.4065 44.4012 52.235 44.8991 51.951 45.3332C51.667 45.7673 51.2794 46.1239 50.8231 46.3707C50.3669 46.6176 49.8564 46.747 49.3376 46.7473L37.5001 46.7548C37.5027 48.7073 36.7437 50.5838 35.3845 51.9855C34.0253 53.3872 32.1731 54.2037 30.2215 54.2613C28.2698 54.3189 26.3727 53.6132 24.9331 52.2941C23.4936 50.975 22.6253 49.1465 22.5126 47.1973L22.5001 46.7473H10.6876C10.1694 46.7473 9.65935 46.6184 9.20332 46.3723C8.74729 46.1262 8.35962 45.7706 8.07522 45.3374C7.79081 44.9042 7.61859 44.4071 7.57406 43.8908C7.52953 43.3745 7.61409 42.8552 7.82013 42.3798L11.2501 34.4848V24.2398C11.2501 13.8523 19.6301 5.48976 30.0001 5.48976ZM33.7501 46.7498L26.2501 46.7548C26.25 47.718 26.6205 48.6444 27.2849 49.3419C27.9492 50.0393 28.8565 50.4544 29.8187 50.501C30.7808 50.5476 31.724 50.2222 32.4527 49.5922C33.1814 48.9623 33.6397 48.076 33.7326 47.1173L33.7501 46.7498ZM30.0001 9.23976C21.7001 9.23976 15.0001 15.9248 15.0001 24.2398V35.2648L11.6401 42.9998H48.3826L45.0001 35.2673V24.2723L44.9926 23.7098C44.8615 19.8233 43.2237 16.1402 40.4256 13.4397C37.6276 10.7392 33.8888 9.23301 30.0001 9.23976Z" fill="#205149"/>
</svg>
