<svg width="726" height="825" viewBox="0 0 726 825" fill="none" xmlns="http://www.w3.org/2000/svg">
<g clip-path="url(#clip0_402_288)">
<path opacity="0.5" d="M385.157 202.073L221.518 462.522L14.0898 259.858L172.104 4.09131L385.157 202.073Z" fill="url(#paint0_linear_402_288)"/>
<path d="M162.28 0H19.3917C8.68198 0 0 8.68198 0 19.3917V239.658C0 250.368 8.68198 259.05 19.3917 259.05H162.28C172.989 259.05 181.671 250.368 181.671 239.658V19.3917C181.671 8.68198 172.989 0 162.28 0Z" fill="#205149"/>
<path d="M58.7199 58.875H122.944C128.087 58.875 133.019 60.9181 136.656 64.5547C140.293 68.1914 142.336 73.1237 142.336 78.2668V182.795C142.336 187.936 140.293 192.867 136.658 196.502C133.023 200.138 128.092 202.18 122.951 202.18H58.7199C53.5769 202.18 48.6445 200.137 45.0078 196.5C41.3712 192.864 39.3281 187.931 39.3281 182.788V78.26C39.3281 75.7138 39.8298 73.1925 40.8044 70.8401C41.779 68.4878 43.2075 66.3505 45.0082 64.5504C46.809 62.7502 48.9468 61.3225 51.2995 60.3487C53.6522 59.3749 56.1736 58.8741 58.7199 58.875Z" fill="#E0EBEA"/>
<path d="M90.4996 193.978C126.546 193.978 155.767 165.688 155.767 130.79C155.767 95.8923 126.546 67.6021 90.4996 67.6021C54.4535 67.6021 25.2324 95.8923 25.2324 130.79C25.2324 165.688 54.4535 193.978 90.4996 193.978Z" fill="#E0EBEA"/>
<path d="M70.6504 102.665V156.379" stroke="#205149" stroke-width="10.0929" stroke-miterlimit="10" stroke-linecap="round"/>
<path d="M109.675 102.665L110.011 156.063" stroke="#205149" stroke-width="10.0929" stroke-miterlimit="10" stroke-linecap="round"/>
<path d="M332.392 250.303C496.569 385.13 583.24 364.063 660.073 386.22C734.686 407.752 717.266 458.781 715.92 464.272C704.381 511.096 567.219 495.735 508.007 567.892C483.32 597.962 523.954 621.976 561.163 628.449C618.968 638.542 639.887 648.635 658.055 661.419C676.672 674.52 691.22 704.482 701.79 740.816C711.526 774.284 656.904 786.147 605.572 818.868" stroke="#AFAFAF" stroke-width="14.13" stroke-miterlimit="10"/>
<path d="M276.975 168.335C276.975 168.335 314.326 185.662 333.63 210.302C333.63 210.302 346.502 228.354 337.277 249.469L331.645 259.387C331.111 260.136 330.515 260.838 329.862 261.486C326.377 264.615 314.097 273.093 298.399 272.292C298.399 272.292 265.678 267.999 235.036 242.134L276.975 168.335Z" fill="#E0EBEA"/>
<path d="M272.956 214.853C284.536 194.477 286.986 174.015 278.427 169.152C269.869 164.288 253.543 176.863 241.963 197.24C230.383 217.617 227.933 238.078 236.491 242.942C245.05 247.806 261.375 235.23 272.956 214.853Z" fill="#205149"/>
<path d="M223.233 167.568L262.34 189.793" stroke="#E0EBEA" stroke-width="10.0929" stroke-miterlimit="10" stroke-linecap="round"/>
<path d="M207.711 194.866L246.824 217.097" stroke="#E0EBEA" stroke-width="10.0929" stroke-miterlimit="10" stroke-linecap="round"/>
<path d="M219.197 110.208L218.8 128.994L227.54 122.447L227.951 139.14" stroke="#FFFF00" stroke-width="4.71" stroke-miterlimit="10"/>
<path d="M203.135 251.945L186.987 261.546L197.167 265.496L183.226 274.681" stroke="#FFFF00" stroke-width="4.71" stroke-miterlimit="10"/>
<path d="M170.624 131.369L179.163 149.179L184.996 139.752L192.398 157.476" stroke="#FFFF00" stroke-width="4.71" stroke-miterlimit="10"/>
<path d="M270.771 136.059L267.05 116.505L276.147 122.548L273.503 105.302" stroke="#FFFF00" stroke-width="4.71" stroke-miterlimit="10"/>
<path d="M191.523 204.226L172.952 201.4L178.308 210.914L161.702 209.165" stroke="#FFFF00" stroke-width="4.71" stroke-miterlimit="10"/>
</g>
<defs>
<linearGradient id="paint0_linear_402_288" x1="17.5546" y1="64.6347" x2="307.012" y2="339.291" gradientUnits="userSpaceOnUse">
<stop stop-color="#B2B2B2" stop-opacity="0"/>
<stop offset="1" stop-color="white"/>
</linearGradient>
<clipPath id="clip0_402_288">
<rect width="725.69" height="824.822" fill="white"/>
</clipPath>
</defs>
</svg>
